<svg width="216" height="216" viewBox="0 0 216 216" fill="none" xmlns="http://www.w3.org/2000/svg">
<path d="M215.985 79.5682L122.185 54.5106L142.448 110.006L161.614 162.489L173.625 158.128L163.914 131.512L216 79.5832L215.985 79.5682ZM159.073 118.294L157.255 113.288L152.429 100.07L142.613 73.169L191.302 86.1773L159.088 118.294H159.073Z" fill="#C82C2C"/>
<path d="M146.462 124.017L107.874 162.488L98.8398 153.481L69.5421 124.272L74.3674 111.054L107.874 144.459L141.636 110.799L146.462 124.017Z" fill="#C82C2C"/>
<path d="M93.9236 54.5104L54.5093 162.489L0.0178223 108.163L49.3533 139.32L73.51 73.1688L0.0178223 92.7863V79.5981L93.9236 54.5104Z" fill="#C82C2C"/>
</svg>
